<svg xmlns="http://www.w3.org/2000/svg" viewBox="0 0 363.72 368.64"><title>Ativo 2</title><g id="Camada_2" data-name="Camada 2"><g id="Layer_1" data-name="Layer 1"><rect x="107.64" y="173.66" width="24.26" height="24.26"/><rect x="169.73" y="173.66" width="24.26" height="24.26"/><rect x="231.82" y="173.66" width="24.26" height="24.26"/><rect x="293.9" y="173.66" width="24.26" height="24.26"/><rect x="45.56" y="232.17" width="24.26" height="24.26"/><rect x="107.64" y="232.17" width="24.26" height="24.26"/><rect x="169.73" y="232.17" width="24.26" height="24.26"/><rect x="231.82" y="232.17" width="24.26" height="24.26"/><rect x="45.56" y="290.69" width="24.26" height="24.26"/><rect x="107.64" y="290.69" width="24.26" height="24.26"/><rect x="169.73" y="290.69" width="24.26" height="24.26"/><rect x="231.82" y="290.69" width="24.26" height="24.26"/><rect x="293.9" y="290.69" width="24.26" height="24.26"/><path d="M44.54,368.17A44.64,44.64,0,0,1,0,323.66v-252A44.64,44.64,0,0,1,44.54,27.09H319.19a44.62,44.62,0,0,1,44.53,44.53V323.9a44,44,0,0,1-13.65,31.42A46.27,46.27,0,0,1,318,368.64v0l-273.46-.45ZM21.21,346.94a33,33,0,0,0,23.33,9.75l273.46.45v0a34.74,34.74,0,0,0,24.06-10A32.58,32.58,0,0,0,352.2,323.9V71.62a33.12,33.12,0,0,0-33-33H44.54a33.12,33.12,0,0,0-33,33v252A32.86,32.86,0,0,0,21.21,346.94Z"/><path d="M5.76,131.92a5.76,5.76,0,0,1,0-11.52H358a5.76,5.76,0,1,1,0,11.52Z"/><path d="M81.69,5.76a5.76,5.76,0,1,1,11.52,0V59.93a5.76,5.76,0,1,1-11.52,0Z"/><path d="M270.51,5.76a5.77,5.77,0,0,1,11.53,0V59.93a5.77,5.77,0,0,1-11.53,0Z"/><path d="M277.3,245.86a5.75,5.75,0,1,1,11.07-3.11l1.46,5.23,32.71-21.24a5.74,5.74,0,1,1,6.25,9.63l-39,25.33a5.82,5.82,0,0,1-1.84.89,5.74,5.74,0,0,1-7.08-4Z"/></g></g></svg>