<svg xmlns="http://www.w3.org/2000/svg" viewBox="0 0 512 512"><defs><style>.cls-1{fill:#6b6a6a;}.cls-2{fill:#fff;}.cls-3{fill:#afafaf;}</style></defs><title>Ativo 1</title><g id="Camada_2" data-name="Camada 2"><g id="Layer_1" data-name="Layer 1"><path class="cls-1" d="M53,264.8H8.8a8.8,8.8,0,1,1,0-17.6H53a8.8,8.8,0,0,1,0,17.6Z"/><path class="cls-1" d="M503.2,264.8H459a8.8,8.8,0,0,1,0-17.6h44.1a8.8,8.8,0,0,1,.1,17.6Z"/><path class="cls-1" d="M256,512a8.81,8.81,0,0,1-8.8-8.8V459a8.8,8.8,0,0,1,17.6,0v44.1A8.83,8.83,0,0,1,256,512Z"/><path class="cls-1" d="M256,61.8a8.81,8.81,0,0,1-8.8-8.8V8.8a8.8,8.8,0,1,1,17.6,0V53A8.81,8.81,0,0,1,256,61.8Z"/><path class="cls-2" d="M361.9,256a52.87,52.87,0,0,0-37.2,15.3,87.89,87.89,0,0,1,19.6,55.3h61.8a8.81,8.81,0,0,0,8.8-8.8V309A53,53,0,0,0,361.9,256Z"/><circle class="cls-2" cx="361.9" cy="203" r="35.3"/><path class="cls-3" d="M353.1,203c0-16,8-29.3,18.9-33.7a33.88,33.88,0,0,0-10.1-1.6,35.3,35.3,0,1,0,0,70.6,37.42,37.42,0,0,0,10.1-1.6C361.1,232.3,353.1,219,353.1,203Z"/><path class="cls-3" d="M361.9,256a52.87,52.87,0,0,0-37.2,15.3,89.41,89.41,0,0,1,11.9,19.4,44.14,44.14,0,0,1,34.6-33.9A57.41,57.41,0,0,0,361.9,256Z"/><path class="cls-2" d="M187.3,271.3A53,53,0,0,0,97.1,309v8.8a8.81,8.81,0,0,0,8.8,8.8h61.8A88.1,88.1,0,0,1,187.3,271.3Z"/><circle class="cls-2" cx="150.1" cy="203" r="35.3"/><path class="cls-3" d="M123.6,319.3V300.2a44.2,44.2,0,0,1,35.7-43.3,56.23,56.23,0,0,0-9.2-.9,53,53,0,0,0-53,53v8.8a8.81,8.81,0,0,0,8.8,8.8h25A7.34,7.34,0,0,1,123.6,319.3Z"/><path class="cls-3" d="M141.2,203c0-16,8-29.3,18.9-33.7a33.88,33.88,0,0,0-10.1-1.6,35.3,35.3,0,1,0,0,70.6,37.42,37.42,0,0,0,10.1-1.6C149.2,232.3,141.2,219,141.2,203Z"/><path class="cls-2" d="M314.9,353.1H197.2a11.82,11.82,0,0,1-11.8-11.8V326.6A70.59,70.59,0,0,1,256,256h0a70.59,70.59,0,0,1,70.6,70.6v14.7A11.74,11.74,0,0,1,314.9,353.1Z"/><circle class="cls-2" cx="256" cy="194.2" r="44.1"/><path class="cls-3" d="M220.7,343.3V314.9a58.81,58.81,0,0,1,47.6-57.7,70.49,70.49,0,0,0-82.9,69.5v14.7a11.82,11.82,0,0,0,11.8,11.8h33.3A10,10,0,0,1,220.7,343.3Z"/><path class="cls-3" d="M245,194.2c0-20,10-36.6,23.6-42.1A44,44,0,1,0,256,238.2a40.59,40.59,0,0,0,12.6-2.1C255,230.8,245,214.2,245,194.2Z"/><path class="cls-2" d="M503.2,247.2h-9.1C489.6,122.8,389.2,22.4,264.8,17.9V8.8a8.8,8.8,0,1,0-17.6,0v9.1C122.8,22.4,22.4,122.8,17.9,247.2H8.8a8.8,8.8,0,1,0,0,17.6h9.1c4.6,124.4,104.9,224.7,229.3,229.3v9.1a8.8,8.8,0,1,0,17.6,0v-9.1c124.4-4.6,224.7-104.9,229.3-229.3h9.1a8.8,8.8,0,1,0,0-17.6ZM256,476.7c-121.7,0-220.7-99-220.7-220.7S134.3,35.3,256,35.3s220.7,99,220.7,220.7S377.7,476.7,256,476.7Z"/></g></g></svg>