<svg xmlns="http://www.w3.org/2000/svg" viewBox="0 0 512 328"><defs><style>.cls-1{fill:#c1c0c1;}.cls-2{fill:#969495;}.cls-3{fill:#efe7ff;}.cls-4{fill:#6a6768;}.cls-5{fill:#212121;}</style></defs><title>visao</title><g id="Camada_2" data-name="Camada 2"><g id="Capa_1" data-name="Capa 1"><path class="cls-1" d="M192,0a32.17,32.17,0,0,0-30.2,21.3A7.91,7.91,0,0,0,174.4,30L208,70.4V80a8,8,0,0,0,16,0V32A32.09,32.09,0,0,0,192,0Z"/><path class="cls-2" d="M168,16a55.48,55.48,0,0,0-39.3,16.2L26.1,144.2,37.9,155l2.8-3L208,197.8V200a8,8,0,0,0,16,0V72A56,56,0,0,0,168,16Z"/><path class="cls-1" d="M320,0a32.17,32.17,0,0,1,30.2,21.3A7.91,7.91,0,0,1,337.6,30L304,70.4V80a8,8,0,0,1-16,0V32A32.09,32.09,0,0,1,320,0Z"/><path class="cls-2" d="M344,16a55.48,55.48,0,0,1,39.3,16.2l102.6,112L474.1,155l-2.8-3L304,197.8V200a8,8,0,0,1-16,0V72A56,56,0,0,1,344,16Z"/><circle class="cls-3" cx="112" cy="216" r="88"/><path class="cls-4" d="M112,104A112,112,0,1,0,224,216,112.07,112.07,0,0,0,112,104Zm0,192a80,80,0,1,1,80-80A80.11,80.11,0,0,1,112,296Z"/><path class="cls-4" d="M192,112H321.2A83.5,83.5,0,0,0,296,172v28H216V172a83.9,83.9,0,0,0-25.2-60"/><circle class="cls-5" cx="128" cy="200" r="32"/><circle class="cls-3" cx="400" cy="216" r="88"/><path class="cls-4" d="M400,104A112,112,0,1,0,512,216,112.07,112.07,0,0,0,400,104Zm0,192a80,80,0,1,1,80-80A80.11,80.11,0,0,1,400,296Z"/><circle class="cls-5" cx="416" cy="200" r="32"/><rect class="cls-2" x="192" y="96" width="128" height="16"/></g></g></svg>